HIERARCHY
ROOT Hips
{
 OFFSET 0.000000 0.000000 0.000000
 CHANNELS 6 Xposition Yposition Zposition Yrotation Xrotation Zrotation
 JOINT Chest
 {
  OFFSET 0.000000 14.632000 -0.008700
  CHANNELS 3 Yrotation Xrotation Zrotation
  JOINT Chest2
  {
   OFFSET 0.000000 8.637700 0.017800
   CHANNELS 3 Yrotation Xrotation Zrotation
   JOINT Chest3
   {
    OFFSET 0.000000 8.599900 0.000000
    CHANNELS 3 Yrotation Xrotation Zrotation
    JOINT Chest4
    {
     OFFSET 0.000000 8.591100 0.000000
     CHANNELS 3 Yrotation Xrotation Zrotation
     JOINT Neck
     {
      OFFSET 0.000000 13.139200 0.000000
      CHANNELS 3 Yrotation Xrotation Zrotation
      JOINT Head
      {
       OFFSET 0.000000 8.045900 0.037600
       CHANNELS 3 Yrotation Xrotation Zrotation
       End Site
       {
        OFFSET 0.000000 15.258900 0.019900
       }
      }
     }
     JOINT RightCollar
     {
      OFFSET -2.790300 8.725300 0.000000
      CHANNELS 3 Yrotation Xrotation Zrotation
      JOINT RightShoulder
      {
       OFFSET -13.162000 0.000000 0.000000
       CHANNELS 3 Yrotation Xrotation Zrotation
       JOINT RightElbow
       {
        OFFSET 0.000000 -23.347200 0.000000
        CHANNELS 3 Yrotation Xrotation Zrotation
        JOINT RightWrist
        {
         OFFSET 0.000000 -19.377400 0.019700
         CHANNELS 3 Yrotation Xrotation Zrotation
         End Site
         {
          OFFSET 0.000000 -14.645200 0.000000
         }
        }
       }
      }
     }
     JOINT LeftCollar
     {
      OFFSET 2.790300 8.725300 0.000000
      CHANNELS 3 Yrotation Xrotation Zrotation
      JOINT LeftShoulder
      {
       OFFSET 13.162000 0.000000 0.000000
       CHANNELS 3 Yrotation Xrotation Zrotation
       JOINT LeftElbow
       {
        OFFSET 0.000000 -23.347200 0.000000
        CHANNELS 3 Yrotation Xrotation Zrotation
        JOINT LeftWrist
        {
         OFFSET 0.000000 -19.377400 0.019700
         CHANNELS 3 Yrotation Xrotation Zrotation
         End Site
         {
          OFFSET 0.000000 -14.645200 0.000000
         }
        }
       }
      }
     }
    }
   }
  }
 }
 JOINT RightHip
 {
  OFFSET -11.965000 0.043200 0.004400
  CHANNELS 3 Yrotation Xrotation Zrotation
  JOINT RightKnee
  {
   OFFSET 0.000000 -37.808000 -0.003100
   CHANNELS 3 Yrotation Xrotation Zrotation
   JOINT RightAnkle
   {
    OFFSET 0.000000 -38.963200 0.011000
    CHANNELS 3 Yrotation Xrotation Zrotation
    JOINT RightToe
    {
     OFFSET 0.000000 -8.453600 14.155200
     CHANNELS 3 Yrotation Xrotation Zrotation
     End Site
     {
      OFFSET 0.000000 -1.360900 5.784800
     }
    }
   }
  }
 }
 JOINT LeftHip
 {
  OFFSET 11.965000 0.043200 0.004400
  CHANNELS 3 Yrotation Xrotation Zrotation
  JOINT LeftKnee
  {
   OFFSET 0.000000 -37.808000 -0.003100
   CHANNELS 3 Yrotation Xrotation Zrotation
   JOINT LeftAnkle
   {
    OFFSET 0.000000 -38.963200 0.011000
    CHANNELS 3 Yrotation Xrotation Zrotation
    JOINT LeftToe
    {
     OFFSET 0.000000 -8.453600 14.155200
     CHANNELS 3 Yrotation Xrotation Zrotation
     End Site
     {
      OFFSET 0.000000 -1.360900 5.784800
     }
    }
   }
  }
 }
}
MOTION
Frames: 12
Frame Time: 0.008333
0.000000 85.009900 0.000000 0.000000 -5.767877 0.000000 0.000000 11.653817 0.000000 0.000000 -5.885947 0.000000 0.000000 -0.000000 0.000000 0.000000 -0.000000 0.000000 0.000000 12.528835 0.000000 0.000000 0.711642 0.000000 0.000000 -0.000000 0.000000 0.000000 0.000000 -90.000000 0.000000 -2.309062 0.000000 0.000000 2.309062 0.000000 0.000000 -0.000000 0.000000 0.000000 -0.000000 90.000000 0.000000 -2.309062 0.000000 0.000000 2.309062 0.000000 0.000000 8.520406 0.000000 0.000000 1.905762 0.000000 -0.000000 -4.658285 0.000000 0.000000 -0.000000 0.000000 0.000000 8.520406 0.000000 0.000000 1.905762 0.000000 -0.000000 -4.658285 0.000000 0.000000 -0.000000 0.000000
-87.244029 60.953353 1.765292 -179.486210 -31.893941 -1.616644 0.455367 23.320934 3.760014 -0.035528 3.460561 0.436634 -0.044244 5.580135 0.703825 0.193037 19.570376 2.523013 -2.883246 6.719577 0.111914 -5.749914 -23.320163 1.680461 3.262466 -0.601598 -3.368012 10.307751 -13.372813 -17.624890 114.993496 -73.917220 -81.104093 20.185046 -15.906654 -46.590764 -10.277031 -4.171920 -2.513783 -2.137361 -11.748086 2.046902 -128.887450 -43.776413 97.284531 -15.461572 -15.365216 34.375797 8.544746 -38.775998 -7.792741 -5.173574 72.042208 -4.369345 2.970663 4.163137 7.207818 -0.048670 0.086515 -0.030235 -11.213858 -46.777078 2.841067 30.012912 69.073570 26.914142 -9.283167 30.015343 2.005823 0.853529 -22.420135 -5.762227
-87.240264 60.953838 1.764950 -179.493037 -31.887725 -1.630846 0.457257 23.324510 3.775603 -0.036446 3.462432 0.436880 -0.045691 5.582976 0.704174 0.134502 19.625745 2.532437 -2.841150 6.590349 0.091209 -5.825669 -23.660709 1.744097 3.291747 -0.631088 -3.399123 10.142360 -13.271138 -17.581905 117.028771 -73.508763 -83.614330 20.356743 -16.149321 -46.659341 -10.215686 -4.186620 -2.535035 -1.751525 -11.536419 1.898846 -129.513612 -43.610252 98.633905 -15.485848 -15.667373 34.751921 8.532009 -38.781762 -7.768053 -5.187764 72.032962 -4.381069 2.977249 4.169292 7.205737 -0.048202 0.085978 -0.031334 -11.248970 -46.786339 2.876203 30.044372 69.080833 26.944705 -9.277300 30.020620 2.003692 0.854598 -22.430526 -5.770433
-87.237535 60.954552 1.764009 -179.497623 -31.882674 -1.642280 0.455435 23.327798 3.786888 -0.037420 3.464166 0.436973 -0.047229 5.585593 0.704335 0.108999 19.638047 2.530263 -2.829322 6.506044 0.091681 -5.900525 -23.974840 1.816592 3.314834 -0.641365 -3.411361 9.911691 -13.142303 -17.519388 119.055943 -73.299160 -86.158742 20.526299 -16.355639 -46.664432 -10.181898 -4.152673 -2.546779 -1.359075 -11.333556 1.735102 -130.069460 -43.502058 99.951800 -15.511512 -15.998491 35.129014 8.519989 -38.787472 -7.751141 -5.196496 72.026968 -4.386883 2.985381 4.178844 7.208933 -0.048222 0.080877 -0.038059 -11.280154 -46.791813 2.907407 30.067053 69.087306 26.965941 -9.279284 30.017520 1.992235 0.859986 -22.433564 -5.772209
-87.236734 60.954947 1.763219 -179.500369 -31.875622 -1.646949 0.417683 23.349031 3.771809 -0.036406 3.463621 0.437602 -0.035393 5.574991 0.705667 0.100300 19.649944 2.527908 -2.843737 6.359084 0.109205 -5.941090 -24.194398 1.871301 3.297367 -0.624725 -3.410324 9.681474 -13.037557 -17.466226 121.139592 -73.249492 -88.742798 20.635499 -16.504130 -46.709335 -10.147001 -4.120958 -2.569841 -0.962972 -11.135382 1.569710 -130.561406 -43.448760 101.234884 -15.534477 -16.340761 35.503554 8.498023 -38.795826 -7.740617 -5.180937 72.024315 -4.375002 2.991436 4.181585 7.203623 -0.049064 0.081013 -0.039561 -11.307582 -46.798755 2.921227 30.092495 69.085948 26.995636 -9.283836 30.018716 1.978460 0.860954 -22.437616 -5.776625
-87.236609 60.955420 1.761951 -179.501396 -31.869930 -1.649385 0.403076 23.362140 3.765431 -0.024874 3.450562 0.439905 -0.053976 5.592364 0.704667 0.091647 19.659684 2.526646 -2.891700 6.164050 0.155577 -5.941324 -24.335229 1.898035 3.246382 -0.601750 -3.406981 9.441044 -12.940849 -17.405192 123.339002 -73.278101 -91.404569 20.668975 -16.598135 -46.845033 -10.118034 -4.098330 -2.609890 -0.557494 -10.937044 1.420729 -131.006178 -43.461288 102.489517 -15.548266 -16.676249 35.855310 8.492190 -38.801370 -7.741512 -5.175258 72.024024 -4.363822 2.993749 4.183175 7.198501 -0.050021 0.081086 -0.038784 -11.314116 -46.804123 2.927166 30.093839 69.087696 27.000744 -9.285453 30.019169 1.972223 0.862821 -22.440227 -5.776848
-87.236621 60.955881 1.760361 -179.503345 -31.865444 -1.649920 0.393720 23.376159 3.758571 -0.033599 3.453422 0.442466 -0.067451 5.617869 0.702341 0.101137 19.650189 2.523241 -2.911203 6.050761 0.185178 -5.996743 -24.521995 1.973033 3.234521 -0.609879 -3.422336 9.121952 -12.814089 -17.299542 125.624739 -73.298087 -94.143989 20.650881 -16.668460 -47.048127 -10.100053 -4.083811 -2.660817 -0.134140 -10.738468 1.301420 -131.427698 -43.554327 103.726344 -15.544909 -17.004390 36.180056 8.491924 -38.805238 -7.746744 -5.160955 72.024879 -4.341805 2.994377 4.182375 7.193008 -0.050776 0.082058 -0.038060 -11.319759 -46.809275 2.925919 30.111574 69.088113 27.022216 -9.276474 30.018669 1.980737 0.860747 -22.442873 -5.787803
-87.236535 60.956783 1.757844 -179.507476 -31.865509 -1.648399 0.388846 23.393707 3.752471 -0.036392 3.459184 0.440545 -0.067663 5.623411 0.703717 0.100182 19.650551 2.522474 -2.906491 6.005628 0.192459 -6.104797 -24.730795 2.097267 3.204146 -0.604974 -3.440640 8.797309 -12.689576 -17.164931 127.911478 -73.247531 -96.892051 20.621639 -16.730023 -47.294728 -10.092206 -4.062455 -2.716486 0.311215 -10.544024 1.215779 -131.859123 -43.743554 104.965067 -15.525529 -17.332541 36.492516 8.495858 -38.804078 -7.754489 -5.143115 72.026748 -4.313848 2.995471 4.180400 7.185828 -0.051338 0.082558 -0.037527 -11.311187 -46.807736 2.913380 30.126378 69.089716 27.045985 -9.256179 30.005452 1.995656 0.849947 -22.437175 -5.797847
-87.235708 60.957653 1.755190 -179.507135 -31.866863 -1.650367 0.384994 23.403675 3.751428 -0.050184 3.487951 0.437257 -0.051391 5.593336 0.706615 0.098612 19.653137 2.521893 -2.940526 5.938885 0.227787 -6.170464 -24.866334 2.190434 3.169062 -0.588440 -3.456484 8.466466 -12.554024 -17.005584 130.098089 -73.090730 -99.556736 20.601041 -16.788069 -47.567830 -10.089765 -4.019478 -2.774071 0.780699 -10.358294 1.163576 -132.335784 -44.031572 106.227614 -15.499519 -17.649317 36.788146 8.496669 -38.801765 -7.759234 -5.131225 72.028996 -4.292969 2.996351 4.180461 7.183781 -0.051718 0.080582 -0.040105 -11.304762 -46.805695 2.902737 30.142369 69.089378 27.076347 -9.255794 29.996476 1.991812 0.846031 -22.434062 -5.799966
-87.236214 60.958485 1.752413 -179.509530 -31.870047 -1.643490 0.379475 23.415810 3.742199 -0.053508 3.490589 0.431855 -0.057995 5.611111 0.710769 0.087433 19.663817 2.517434 -2.956468 5.856386 0.265275 -6.231274 -24.979078 2.281915 3.155763 -0.599855 -3.481380 8.144179 -12.416829 -16.824305 132.119217 -72.819611 -102.074659 20.589666 -16.840298 -47.861636 -10.058148 -4.000362 -2.824809 1.274945 -10.181717 1.139484 -132.869605 -44.393457 107.517146 -15.475926 -17.943054 37.054995 8.507405 -38.798281 -7.775392 -5.114540 72.034630 -4.267769 2.998941 4.178088 7.182608 -0.051332 0.079744 -0.040542 -11.266696 -46.799474 2.863293 30.156062 69.079829 27.120947 -9.269742 29.984698 1.977071 0.845811 -22.427024 -5.797881
-87.235555 60.958323 1.751246 -179.503433 -31.867304 -1.643107 0.361898 23.422298 3.720709 -0.050292 3.488763 0.434878 -0.059843 5.620052 0.713254 0.069624 19.673494 2.498998 -2.993428 5.762138 0.338500 -6.256479 -25.034879 2.346390 3.142512 -0.596047 -3.491065 7.833449 -12.282029 -16.625999 133.963470 -72.455586 -104.424840 20.584676 -16.884228 -48.175978 -10.018091 -3.958655 -2.850844 1.785832 -10.009621 1.134390 -133.447378 -44.791238 108.821991 -15.457131 -18.225603 37.294025 8.510487 -38.801182 -7.789068 -5.108825 72.039679 -4.252010 3.002099 4.177485 7.179951 -0.050924 0.078326 -0.040409 -11.261085 -46.801232 2.850677 30.161858 69.075738 27.138850 -9.278964 29.978288 1.966217 0.849066 -22.421775 -5.796962
-87.234719 60.957809 1.750755 -179.506326 -31.863667 -1.635941 0.360244 23.418974 3.711635 -0.052946 3.490323 0.428677 -0.064713 5.621255 0.705556 0.071577 19.672282 2.491037 -3.023698 5.715227 0.391180 -6.317824 -25.087501 2.436632 3.106566 -0.567951 -3.499710 7.533094 -12.156102 -16.415685 135.643487 -72.043453 -106.608240 20.581412 -16.932516 -48.507099 -9.988095 -3.891129 -2.868380 2.297272 -9.833544 1.138779 -134.058086 -45.186275 110.136932 -15.445268 -18.512428 37.521190 8.522477 -38.807924 -7.810329 -5.084945 72.046522 -4.211203 2.999867 4.180188 7.168121 -0.048268 0.076740 -0.038482 -11.246682 -46.804540 2.836650 30.156149 69.073843 27.140746 -9.272448 29.977022 1.969268 0.846033 -22.421432 -5.800489
